# xmcd
# 
# Track frame offsets:
#     150
#     15225
#     27655
#     36312
#     45787
#     56485
#     68852
#     81350
#     99240
#     117645
#     133085
#     145050
#     157890
#     167890
#     185335
#     201142
# 
# Disc length: 2919
# 
# Revision: 3
# Processed by: cddbd v1.5.2PL0 Copyright (c) Steve Scherf et al.
# Submitted via: BonkEnc v1.0.8
# 
DISCID=d40b6510
DTITLE=Various Artist - Country Christmas CD2
DYEAR=0
DGENRE=Country
TTITLE0=Mary' Little Boychild - John Denver
TTITLE1=Here Was A Man - Johnny Cash
TTITLE2=Santa's Comin' In A Whirlybird - Gene Autry
TTITLE3=We Wish You A Merry Christmas - Pat Boone
TTITLE4=Let It Snow! - Glen Campbell
TTITLE5=Church Bells Are Ringing - Jimmy Sturr
TTITLE6=Away In A Manger - Moe Bandy
TTITLE7=It Came Upon A Midnight Clear - June Carter and The Carter Family
TTITLE8=The Christmas Song - Joh Denver
TTITLE9=Christmas Is - Johnny Paycheck
TTITLE10=Winter Wonderland - Faron Young
TTITLE11=Marvelous Toy - John Denver
TTITLE12=Hark! The Herold Angels Sing - Pat Boone
TTITLE13=Do You Hear What I Hear - Glen Campbell
TTITLE14=The Children Of Bethlehem - John Denver
TTITLE15=Silent Night - Kitty Wells
EXTD=
EXTT0=
EXTT1=
EXTT2=
EXTT3=
EXTT4=
EXTT5=
EXTT6=
EXTT7=
EXTT8=
EXTT9=
EXTT10=
EXTT11=
EXTT12=
EXTT13=
EXTT14=
EXTT15=
PLAYORDER=
